<svg width="52" height="52" viewBox="0 0 52 52" fill="none" xmlns="http://www.w3.org/2000/svg">
<g filter="url(#filter0_d)">
<circle cx="26" cy="22" r="22" fill="#132028"/>
</g>
<path fill-rule="evenodd" clip-rule="evenodd" d="M33.8456 15.5944C33.8456 16.3898 33.2008 17.0344 32.4056 17.0344C31.6104 17.0344 30.9656 16.3898 30.9656 15.5944C30.9656 14.7991 31.6104 14.1544 32.4056 14.1544C33.2009 14.1544 33.8456 14.7991 33.8456 15.5944ZM26 25.9999C23.7909 25.9999 22.0001 24.2091 22.0001 22C22.0001 19.7909 23.7909 18.0001 26 18.0001C28.2091 18.0001 29.9999 19.7909 29.9999 22C29.9999 24.2091 28.2091 25.9999 26 25.9999ZM26 15.8378C22.5967 15.8378 19.8378 18.5967 19.8378 22C19.8378 25.4033 22.5967 28.1622 26 28.1622C29.4033 28.1622 32.1622 25.4033 32.1622 22C32.1622 18.5967 29.4033 15.8378 26 15.8378ZM26 12.1623C29.2042 12.1623 29.5837 12.1744 30.8489 12.2322C32.0189 12.2856 32.6544 12.481 33.0772 12.6454C33.6373 12.8631 34.037 13.1232 34.457 13.5432C34.877 13.963 35.1371 14.3628 35.3548 14.923C35.519 15.3458 35.7146 15.9812 35.768 17.1512C35.8258 18.4167 35.8379 18.7962 35.8379 22.0004C35.8379 25.2046 35.8258 25.5841 35.768 26.8493C35.7146 28.0193 35.5192 28.6548 35.3548 29.0776C35.1371 29.6376 34.877 30.0374 34.457 30.4574C34.0372 30.8774 33.6374 31.1374 33.0772 31.3551C32.6544 31.5194 32.0189 31.7149 30.8489 31.7684C29.5837 31.8261 29.2042 31.8383 26 31.8383C22.7956 31.8383 22.4161 31.8261 21.1509 31.7684C19.9809 31.7149 19.3454 31.5196 18.9226 31.3551C18.3626 31.1374 17.9628 30.8774 17.5428 30.4574C17.123 30.0376 16.8628 29.6378 16.6451 29.0776C16.4808 28.6548 16.2852 28.0193 16.2318 26.8493C16.1741 25.5839 16.1619 25.2044 16.1619 22.0004C16.1619 18.7962 16.1741 18.4167 16.2318 17.1512C16.2852 15.9812 16.4806 15.3458 16.6451 14.923C16.8628 14.3629 17.1228 13.9632 17.5428 13.5432C17.9626 13.1232 18.3624 12.8631 18.9226 12.6454C19.3454 12.4812 19.9809 12.2856 21.1509 12.2322C22.4163 12.1744 22.7958 12.1623 26 12.1623ZM26 10C22.7411 10 22.3323 10.0139 21.0524 10.0722C19.7752 10.1305 18.9028 10.3334 18.1396 10.63C17.3504 10.9366 16.6813 11.347 16.0141 12.0141C15.347 12.6813 14.9366 13.3504 14.63 14.1396C14.3334 14.9029 14.1305 15.7752 14.0722 17.0524C14.0139 18.3323 14 18.7411 14 22C14 25.2589 14.0139 25.6677 14.0722 26.9476C14.1305 28.2248 14.3334 29.0971 14.63 29.8604C14.9366 30.6496 15.347 31.3188 16.0141 31.9859C16.6813 32.653 17.3504 33.0633 18.1396 33.37C18.9029 33.6666 19.7752 33.8695 21.0524 33.9278C22.3323 33.9861 22.7411 34 26 34C29.2589 34 29.6677 33.9861 30.9476 33.9278C32.2248 33.8695 33.0971 33.6666 33.8604 33.37C34.6496 33.0633 35.3188 32.653 35.9859 31.9859C36.653 31.3188 37.0633 30.6496 37.37 29.8604C37.6666 29.0971 37.8695 28.2248 37.9278 26.9476C37.9861 25.6677 38 25.2589 38 22C38 18.7411 37.9861 18.3323 37.9278 17.0524C37.8695 15.7752 37.6666 14.9029 37.37 14.1396C37.0633 13.3504 36.653 12.6813 35.9859 12.0141C35.3188 11.347 34.6496 10.9367 33.8604 10.63C33.0971 10.3334 32.2248 10.1305 30.9476 10.0722C29.6677 10.0139 29.2589 10 26 10Z" fill="url(#paint0_radial)"/>
<defs>
<filter id="filter0_d" x="0" y="0" width="52" height="52" filterUnits="userSpaceOnUse" color-interpolation-filters="sRGB">
<feFlood flood-opacity="0" result="BackgroundImageFix"/>
<feColorMatrix in="SourceAlpha" type="matrix" values="0 0 0 0 0 0 0 0 0 0 0 0 0 0 0 0 0 0 127 0"/>
<feOffset dy="4"/>
<feGaussianBlur stdDeviation="2"/>
<feColorMatrix type="matrix" values="0 0 0 0 0 0 0 0 0 0 0 0 0 0 0 0 0 0 0.25 0"/>
<feBlend mode="normal" in2="BackgroundImageFix" result="effect1_dropShadow"/>
<feBlend mode="normal" in="SourceGraphic" in2="effect1_dropShadow" result="shape"/>
</filter>
<radialGradient id="paint0_radial" cx="0" cy="0" r="1" gradientUnits="userSpaceOnUse" gradientTransform="translate(17.5833 34.0833) scale(30.666)">
<stop stop-color="#FFB140"/>
<stop offset="0.2559" stop-color="#FF5445"/>
<stop offset="0.599" stop-color="#FC2B82"/>
<stop offset="1" stop-color="#8E40B7"/>
</radialGradient>
</defs>
</svg>
