<svg width="115" height="16" viewBox="0 0 115 16" fill="none" xmlns="http://www.w3.org/2000/svg">
<path d="M3.94024 12.1056H9.5007V15.642H-1.52588e-05V0.263779H3.94024V12.1056Z" fill="white"/>
<path d="M20.4503 10.458V0.263779H24.1955V10.5239C24.1955 13.9067 21.2795 15.8614 18.1302 15.8614C14.9809 15.8614 12.0522 13.9067 12.0522 10.5239V0.263779H15.7956V10.458C15.7956 11.7106 17.0003 12.325 18.1393 12.325C19.2784 12.325 20.4503 11.7106 20.4503 10.458Z" fill="white"/>
<path d="M26.4937 3.77829V0.263779H37.8807V3.77829H34.1355V15.642H30.2608V3.77829H26.4937Z" fill="white"/>
<path d="M47.8225 11.1163C47.8225 10.0411 46.5467 9.7979 45.0195 9.71013C41.6898 9.46876 39.5009 8.3259 39.4572 4.98694C39.326 -1.64709 51.2379 -1.64709 51.1504 4.98694H47.427C47.427 2.94443 43.31 3.11998 43.1787 4.94306C43.0913 6.10785 44.2303 6.34922 45.61 6.50282C48.6535 6.83196 51.6242 7.29459 51.6242 11.1382C51.6242 17.5986 39.1437 17.7083 39.2312 10.9407H43.0348C43.0348 12.8955 47.8225 12.9174 47.8225 11.1163Z" fill="white"/>
<path d="M64.0683 3.77829H58.3984V5.95427H63.609V9.44684H58.3984V12.1495H64.2669V15.642H54.5001V0.263779H64.0683V3.77829Z" fill="white"/>
<path d="M71.6882 8.08454V15.642H67.6386V0.197937H69.0619L76.813 7.79928V0.263763H80.8226V15.6639H79.421L71.6882 8.08454Z" fill="white"/>
<path d="M84.7391 15.642V0.263779H88.725V6.08593H89.0093C92.9295 6.08593 92.7308 3.14194 92.7308 0.263779H96.7604C96.7604 3.40525 96.8478 6.29804 93.8043 8.26009L97.965 15.0258V15.6402H93.6074L90.2376 9.68272C89.7374 9.75498 89.232 9.78434 88.7268 9.77049V15.6365L84.7391 15.642Z" fill="white"/>
<path d="M99.2791 7.97483C99.2791 -2.65828 115 -2.65828 115 7.97483C115 18.6079 99.2791 18.6299 99.2791 7.97483ZM110.994 7.97483C110.994 2.43793 103.309 2.43793 103.309 7.97483C103.309 13.5556 110.994 13.5556 110.994 7.97483Z" fill="white"/>
</svg>
