<svg width="18" height="12" viewBox="0 0 18 12" fill="none" xmlns="http://www.w3.org/2000/svg">
<path d="M5.2789 0.722656C5.79882 0.722656 6.27148 0.765625 6.70117 0.860156C7.12656 0.95039 7.49179 1.10078 7.80117 1.31133C8.10624 1.51758 8.34257 1.79688 8.51015 2.14062C8.67773 2.48438 8.75937 2.91406 8.75937 3.42109C8.75937 3.97109 8.63476 4.42656 8.38554 4.79609C8.13632 5.16133 7.76679 5.46211 7.27265 5.69414C7.94296 5.8875 8.4414 6.22695 8.76796 6.7082C9.09882 7.19375 9.2621 7.77383 9.2621 8.45703C9.2621 9.01133 9.15468 9.48398 8.94413 9.88359C8.72929 10.2875 8.4414 10.6184 8.08046 10.8719C7.71953 11.1254 7.30702 11.3145 6.84296 11.4391C6.3832 11.5594 5.90624 11.6238 5.4207 11.6238H0.144135V0.722656H5.2789ZM4.96952 5.12266C5.39492 5.12266 5.74726 5.02383 6.02656 4.81758C6.30156 4.61562 6.43476 4.28477 6.43476 3.825C6.43476 3.57148 6.39179 3.36094 6.30156 3.19766C6.20702 3.03438 6.08671 2.90977 5.93203 2.81953C5.77734 2.725 5.60546 2.66484 5.40351 2.62617C5.20585 2.5875 4.9996 2.57031 4.78476 2.57031H2.54179V5.11836H4.96952V5.12266ZM5.10273 9.76328C5.33906 9.76328 5.56249 9.7418 5.77734 9.69453C5.99218 9.64727 6.18124 9.57422 6.34452 9.4625C6.50351 9.35508 6.63671 9.21328 6.73554 9.02851C6.83437 8.84375 6.87734 8.60742 6.87734 8.32383C6.87734 7.76094 6.71835 7.36562 6.40468 7.1207C6.09101 6.88008 5.66992 6.76406 5.15429 6.76406H2.54609V9.76328H5.10273Z" fill="#06131B"/>
<path d="M12.6867 9.7248C13.0133 10.0428 13.4816 10.2018 14.0875 10.2018C14.5258 10.2018 14.9039 10.09 15.2176 9.8709C15.5312 9.65176 15.7246 9.41543 15.7976 9.17051H17.7055C17.4004 10.1201 16.932 10.799 16.3004 11.2072C15.673 11.6154 14.9082 11.8217 14.0144 11.8217C13.3914 11.8217 12.8328 11.7229 12.3301 11.5209C11.8273 11.3189 11.4105 11.0396 11.0582 10.6744C10.7144 10.3049 10.448 9.8709 10.259 9.35957C10.0699 8.85254 9.97537 8.28965 9.97537 7.67949C9.97537 7.09082 10.0742 6.53652 10.2676 6.02949C10.4652 5.51816 10.7359 5.07559 11.0926 4.70605C11.4492 4.33223 11.8746 4.04004 12.373 3.8252C12.8672 3.61035 13.4129 3.50293 14.0187 3.50293C14.6847 3.50293 15.2691 3.63183 15.7719 3.89394C16.2703 4.15176 16.6785 4.4998 17.0008 4.93809C17.323 5.37637 17.5508 5.8748 17.6926 6.4334C17.8344 6.99199 17.8859 7.57637 17.8429 8.19082H12.1496C12.1496 8.81816 12.3601 9.41113 12.6867 9.7248ZM15.1746 5.58262C14.9168 5.29902 14.4828 5.14434 13.95 5.14434C13.6019 5.14434 13.3183 5.20449 13.0863 5.32051C12.8629 5.43652 12.6781 5.58262 12.5363 5.75449C12.3945 5.93066 12.3 6.11543 12.2441 6.30879C12.1883 6.50215 12.1539 6.67402 12.1453 6.82871H15.673C15.6258 6.27871 15.4367 5.87051 15.1746 5.58262Z" fill="#06131B"/>
<path d="M16.1242 1.45312H11.707V2.52734H16.1242V1.45312Z" fill="#06131B"/>
</svg>
