<svg width="1140" height="1110" viewBox="0 0 1140 1110" fill="none" xmlns="http://www.w3.org/2000/svg">
<rect width="1140" height="1110" rx="10" fill="#06131B"/>
<circle cx="530" cy="172" r="1" fill="white"/>
<circle cx="590" cy="172" r="1" fill="white"/>
<circle cx="530" cy="92" r="1" fill="white"/>
<circle cx="590" cy="92" r="1" fill="white"/>
<circle cx="530" cy="212" r="1" fill="white"/>
<circle cx="590" cy="212" r="1" fill="white"/>
<circle cx="530" cy="132" r="1" fill="white"/>
<circle cx="590" cy="132" r="1" fill="white"/>
<circle cx="530" cy="192" r="1" fill="white"/>
<circle cx="590" cy="192" r="1" fill="white"/>
<circle cx="530" cy="112" r="1" fill="white"/>
<circle cx="590" cy="112" r="1" fill="white"/>
<circle cx="530" cy="232" r="1" fill="white"/>
<circle cx="590" cy="232" r="1" fill="white"/>
<circle cx="530" cy="152" r="1" fill="white"/>
<circle cx="590" cy="152" r="1" fill="white"/>
<circle cx="530" cy="182" r="1" fill="white"/>
<circle cx="590" cy="182" r="1" fill="white"/>
<circle cx="530" cy="102" r="1" fill="white"/>
<circle cx="590" cy="102" r="1" fill="white"/>
<circle cx="530" cy="222" r="1" fill="white"/>
<circle cx="590" cy="222" r="1" fill="white"/>
<circle cx="530" cy="142" r="1" fill="white"/>
<circle cx="590" cy="142" r="1" fill="white"/>
<circle cx="530" cy="202" r="1" fill="white"/>
<circle cx="590" cy="202" r="1" fill="white"/>
<circle cx="530" cy="122" r="1" fill="white"/>
<circle cx="590" cy="122" r="1" fill="white"/>
<circle cx="530" cy="242" r="1" fill="white"/>
<circle cx="590" cy="242" r="1" fill="white"/>
<circle cx="530" cy="162" r="1" fill="white"/>
<circle cx="590" cy="162" r="1" fill="white"/>
<circle cx="540" cy="172" r="1" fill="white"/>
<circle cx="600" cy="172" r="1" fill="white"/>
<circle cx="540" cy="92" r="1" fill="white"/>
<circle cx="600" cy="92" r="1" fill="white"/>
<circle cx="540" cy="212" r="1" fill="white"/>
<circle cx="600" cy="212" r="1" fill="white"/>
<circle cx="540" cy="132" r="1" fill="white"/>
<circle cx="600" cy="132" r="1" fill="white"/>
<circle cx="540" cy="192" r="1" fill="white"/>
<circle cx="600" cy="192" r="1" fill="white"/>
<circle cx="540" cy="112" r="1" fill="white"/>
<circle cx="600" cy="112" r="1" fill="white"/>
<circle cx="540" cy="232" r="1" fill="white"/>
<circle cx="600" cy="232" r="1" fill="white"/>
<circle cx="540" cy="152" r="1" fill="white"/>
<circle cx="600" cy="152" r="1" fill="white"/>
<circle cx="540" cy="182" r="1" fill="white"/>
<circle cx="600" cy="182" r="1" fill="white"/>
<circle cx="540" cy="102" r="1" fill="white"/>
<circle cx="600" cy="102" r="1" fill="white"/>
<circle cx="540" cy="222" r="1" fill="white"/>
<circle cx="600" cy="222" r="1" fill="white"/>
<circle cx="540" cy="142" r="1" fill="white"/>
<circle cx="600" cy="142" r="1" fill="white"/>
<circle cx="540" cy="202" r="1" fill="white"/>
<circle cx="600" cy="202" r="1" fill="white"/>
<circle cx="540" cy="122" r="1" fill="white"/>
<circle cx="600" cy="122" r="1" fill="white"/>
<circle cx="540" cy="242" r="1" fill="white"/>
<circle cx="600" cy="242" r="1" fill="white"/>
<circle cx="540" cy="162" r="1" fill="white"/>
<circle cx="600" cy="162" r="1" fill="white"/>
<circle cx="550" cy="172" r="1" fill="white"/>
<circle cx="610" cy="172" r="1" fill="white"/>
<circle cx="550" cy="92" r="1" fill="white"/>
<circle cx="610" cy="92" r="1" fill="white"/>
<circle cx="550" cy="212" r="1" fill="white"/>
<circle cx="610" cy="212" r="1" fill="white"/>
<circle cx="550" cy="132" r="1" fill="white"/>
<circle cx="610" cy="132" r="1" fill="white"/>
<circle cx="550" cy="192" r="1" fill="white"/>
<circle cx="610" cy="192" r="1" fill="white"/>
<circle cx="550" cy="112" r="1" fill="white"/>
<circle cx="610" cy="112" r="1" fill="white"/>
<circle cx="550" cy="232" r="1" fill="white"/>
<circle cx="610" cy="232" r="1" fill="white"/>
<circle cx="550" cy="152" r="1" fill="white"/>
<circle cx="610" cy="152" r="1" fill="white"/>
<circle cx="550" cy="182" r="1" fill="white"/>
<circle cx="610" cy="182" r="1" fill="white"/>
<circle cx="550" cy="102" r="1" fill="white"/>
<circle cx="610" cy="102" r="1" fill="white"/>
<circle cx="550" cy="222" r="1" fill="white"/>
<circle cx="610" cy="222" r="1" fill="white"/>
<circle cx="550" cy="142" r="1" fill="white"/>
<circle cx="610" cy="142" r="1" fill="white"/>
<circle cx="550" cy="202" r="1" fill="white"/>
<circle cx="610" cy="202" r="1" fill="white"/>
<circle cx="550" cy="122" r="1" fill="white"/>
<circle cx="610" cy="122" r="1" fill="white"/>
<circle cx="550" cy="242" r="1" fill="white"/>
<circle cx="610" cy="242" r="1" fill="white"/>
<circle cx="550" cy="162" r="1" fill="white"/>
<circle cx="610" cy="162" r="1" fill="white"/>
<circle cx="560" cy="172" r="1" fill="white"/>
<circle cx="620" cy="172" r="1" fill="white"/>
<circle cx="560" cy="92" r="1" fill="white"/>
<circle cx="620" cy="92" r="1" fill="white"/>
<circle cx="560" cy="212" r="1" fill="white"/>
<circle cx="620" cy="212" r="1" fill="white"/>
<circle cx="560" cy="132" r="1" fill="white"/>
<circle cx="620" cy="132" r="1" fill="white"/>
<circle cx="560" cy="192" r="1" fill="white"/>
<circle cx="620" cy="192" r="1" fill="white"/>
<circle cx="560" cy="112" r="1" fill="white"/>
<circle cx="620" cy="112" r="1" fill="white"/>
<circle cx="560" cy="232" r="1" fill="white"/>
<circle cx="620" cy="232" r="1" fill="white"/>
<circle cx="560" cy="152" r="1" fill="white"/>
<circle cx="620" cy="152" r="1" fill="white"/>
<circle cx="560" cy="182" r="1" fill="white"/>
<circle cx="620" cy="182" r="1" fill="white"/>
<circle cx="560" cy="102" r="1" fill="white"/>
<circle cx="620" cy="102" r="1" fill="white"/>
<circle cx="560" cy="222" r="1" fill="white"/>
<circle cx="620" cy="222" r="1" fill="white"/>
<circle cx="560" cy="142" r="1" fill="white"/>
<circle cx="620" cy="142" r="1" fill="white"/>
<circle cx="560" cy="202" r="1" fill="white"/>
<circle cx="620" cy="202" r="1" fill="white"/>
<circle cx="560" cy="122" r="1" fill="white"/>
<circle cx="620" cy="122" r="1" fill="white"/>
<circle cx="560" cy="242" r="1" fill="white"/>
<circle cx="620" cy="242" r="1" fill="white"/>
<circle cx="560" cy="162" r="1" fill="white"/>
<circle cx="620" cy="162" r="1" fill="white"/>
<circle cx="570" cy="172" r="1" fill="white"/>
<circle cx="630" cy="172" r="1" fill="white"/>
<circle cx="570" cy="92" r="1" fill="white"/>
<circle cx="630" cy="92" r="1" fill="white"/>
<circle cx="570" cy="212" r="1" fill="white"/>
<circle cx="630" cy="212" r="1" fill="white"/>
<circle cx="570" cy="132" r="1" fill="white"/>
<circle cx="630" cy="132" r="1" fill="white"/>
<circle cx="570" cy="192" r="1" fill="white"/>
<circle cx="630" cy="192" r="1" fill="white"/>
<circle cx="570" cy="112" r="1" fill="white"/>
<circle cx="630" cy="112" r="1" fill="white"/>
<circle cx="570" cy="232" r="1" fill="white"/>
<circle cx="630" cy="232" r="1" fill="white"/>
<circle cx="570" cy="152" r="1" fill="white"/>
<circle cx="630" cy="152" r="1" fill="white"/>
<circle cx="570" cy="182" r="1" fill="white"/>
<circle cx="630" cy="182" r="1" fill="white"/>
<circle cx="570" cy="102" r="1" fill="white"/>
<circle cx="630" cy="102" r="1" fill="white"/>
<circle cx="570" cy="222" r="1" fill="white"/>
<circle cx="630" cy="222" r="1" fill="white"/>
<circle cx="570" cy="142" r="1" fill="white"/>
<circle cx="630" cy="142" r="1" fill="white"/>
<circle cx="570" cy="202" r="1" fill="white"/>
<circle cx="630" cy="202" r="1" fill="white"/>
<circle cx="570" cy="122" r="1" fill="white"/>
<circle cx="630" cy="122" r="1" fill="white"/>
<circle cx="570" cy="242" r="1" fill="white"/>
<circle cx="630" cy="242" r="1" fill="white"/>
<circle cx="570" cy="162" r="1" fill="white"/>
<circle cx="630" cy="162" r="1" fill="white"/>
<circle cx="580" cy="172" r="1" fill="white"/>
<circle cx="640" cy="172" r="1" fill="white"/>
<circle cx="580" cy="92" r="1" fill="white"/>
<circle cx="640" cy="92" r="1" fill="white"/>
<circle cx="580" cy="212" r="1" fill="white"/>
<circle cx="640" cy="212" r="1" fill="white"/>
<circle cx="580" cy="132" r="1" fill="white"/>
<circle cx="640" cy="132" r="1" fill="white"/>
<circle cx="580" cy="192" r="1" fill="white"/>
<circle cx="640" cy="192" r="1" fill="white"/>
<circle cx="580" cy="112" r="1" fill="white"/>
<circle cx="640" cy="112" r="1" fill="white"/>
<circle cx="580" cy="232" r="1" fill="white"/>
<circle cx="640" cy="232" r="1" fill="white"/>
<circle cx="580" cy="152" r="1" fill="white"/>
<circle cx="640" cy="152" r="1" fill="white"/>
<circle cx="580" cy="182" r="1" fill="white"/>
<circle cx="640" cy="182" r="1" fill="white"/>
<circle cx="580" cy="102" r="1" fill="white"/>
<circle cx="640" cy="102" r="1" fill="white"/>
<circle cx="580" cy="222" r="1" fill="white"/>
<circle cx="640" cy="222" r="1" fill="white"/>
<circle cx="580" cy="142" r="1" fill="white"/>
<circle cx="640" cy="142" r="1" fill="white"/>
<circle cx="580" cy="202" r="1" fill="white"/>
<circle cx="640" cy="202" r="1" fill="white"/>
<circle cx="580" cy="122" r="1" fill="white"/>
<circle cx="640" cy="122" r="1" fill="white"/>
<circle cx="580" cy="242" r="1" fill="white"/>
<circle cx="640" cy="242" r="1" fill="white"/>
<circle cx="580" cy="162" r="1" fill="white"/>
<circle cx="640" cy="162" r="1" fill="white"/>
<circle cx="40" cy="602" r="1" fill="white"/>
<circle cx="100" cy="602" r="1" fill="white"/>
<circle cx="40" cy="522" r="1" fill="white"/>
<circle cx="100" cy="522" r="1" fill="white"/>
<circle cx="40" cy="642" r="1" fill="white"/>
<circle cx="100" cy="642" r="1" fill="white"/>
<circle cx="40" cy="562" r="1" fill="white"/>
<circle cx="100" cy="562" r="1" fill="white"/>
<circle cx="40" cy="622" r="1" fill="white"/>
<circle cx="100" cy="622" r="1" fill="white"/>
<circle cx="40" cy="542" r="1" fill="white"/>
<circle cx="100" cy="542" r="1" fill="white"/>
<circle cx="40" cy="662" r="1" fill="white"/>
<circle cx="100" cy="662" r="1" fill="white"/>
<circle cx="40" cy="582" r="1" fill="white"/>
<circle cx="100" cy="582" r="1" fill="white"/>
<circle cx="40" cy="612" r="1" fill="white"/>
<circle cx="100" cy="612" r="1" fill="white"/>
<circle cx="40" cy="532" r="1" fill="white"/>
<circle cx="100" cy="532" r="1" fill="white"/>
<circle cx="40" cy="652" r="1" fill="white"/>
<circle cx="100" cy="652" r="1" fill="white"/>
<circle cx="40" cy="572" r="1" fill="white"/>
<circle cx="100" cy="572" r="1" fill="white"/>
<circle cx="40" cy="632" r="1" fill="white"/>
<circle cx="100" cy="632" r="1" fill="white"/>
<circle cx="40" cy="552" r="1" fill="white"/>
<circle cx="100" cy="552" r="1" fill="white"/>
<circle cx="40" cy="672" r="1" fill="white"/>
<circle cx="100" cy="672" r="1" fill="white"/>
<circle cx="40" cy="592" r="1" fill="white"/>
<circle cx="100" cy="592" r="1" fill="white"/>
<circle cx="50" cy="602" r="1" fill="white"/>
<circle cx="110" cy="602" r="1" fill="white"/>
<circle cx="50" cy="522" r="1" fill="white"/>
<circle cx="110" cy="522" r="1" fill="white"/>
<circle cx="50" cy="642" r="1" fill="white"/>
<circle cx="110" cy="642" r="1" fill="white"/>
<circle cx="50" cy="562" r="1" fill="white"/>
<circle cx="110" cy="562" r="1" fill="white"/>
<circle cx="50" cy="622" r="1" fill="white"/>
<circle cx="110" cy="622" r="1" fill="white"/>
<circle cx="50" cy="542" r="1" fill="white"/>
<circle cx="110" cy="542" r="1" fill="white"/>
<circle cx="50" cy="662" r="1" fill="white"/>
<circle cx="110" cy="662" r="1" fill="white"/>
<circle cx="50" cy="582" r="1" fill="white"/>
<circle cx="110" cy="582" r="1" fill="white"/>
<circle cx="50" cy="612" r="1" fill="white"/>
<circle cx="110" cy="612" r="1" fill="white"/>
<circle cx="50" cy="532" r="1" fill="white"/>
<circle cx="110" cy="532" r="1" fill="white"/>
<circle cx="50" cy="652" r="1" fill="white"/>
<circle cx="110" cy="652" r="1" fill="white"/>
<circle cx="50" cy="572" r="1" fill="white"/>
<circle cx="110" cy="572" r="1" fill="white"/>
<circle cx="50" cy="632" r="1" fill="white"/>
<circle cx="110" cy="632" r="1" fill="white"/>
<circle cx="50" cy="552" r="1" fill="white"/>
<circle cx="110" cy="552" r="1" fill="white"/>
<circle cx="50" cy="672" r="1" fill="white"/>
<circle cx="110" cy="672" r="1" fill="white"/>
<circle cx="50" cy="592" r="1" fill="white"/>
<circle cx="110" cy="592" r="1" fill="white"/>
<circle cx="60" cy="602" r="1" fill="white"/>
<circle cx="120" cy="602" r="1" fill="white"/>
<circle cx="60" cy="522" r="1" fill="white"/>
<circle cx="120" cy="522" r="1" fill="white"/>
<circle cx="60" cy="642" r="1" fill="white"/>
<circle cx="120" cy="642" r="1" fill="white"/>
<circle cx="60" cy="562" r="1" fill="white"/>
<circle cx="120" cy="562" r="1" fill="white"/>
<circle cx="60" cy="622" r="1" fill="white"/>
<circle cx="120" cy="622" r="1" fill="white"/>
<circle cx="60" cy="542" r="1" fill="white"/>
<circle cx="120" cy="542" r="1" fill="white"/>
<circle cx="60" cy="662" r="1" fill="white"/>
<circle cx="120" cy="662" r="1" fill="white"/>
<circle cx="60" cy="582" r="1" fill="white"/>
<circle cx="120" cy="582" r="1" fill="white"/>
<circle cx="60" cy="612" r="1" fill="white"/>
<circle cx="120" cy="612" r="1" fill="white"/>
<circle cx="60" cy="532" r="1" fill="white"/>
<circle cx="120" cy="532" r="1" fill="white"/>
<circle cx="60" cy="652" r="1" fill="white"/>
<circle cx="120" cy="652" r="1" fill="white"/>
<circle cx="60" cy="572" r="1" fill="white"/>
<circle cx="120" cy="572" r="1" fill="white"/>
<circle cx="60" cy="632" r="1" fill="white"/>
<circle cx="120" cy="632" r="1" fill="white"/>
<circle cx="60" cy="552" r="1" fill="white"/>
<circle cx="120" cy="552" r="1" fill="white"/>
<circle cx="60" cy="672" r="1" fill="white"/>
<circle cx="120" cy="672" r="1" fill="white"/>
<circle cx="60" cy="592" r="1" fill="white"/>
<circle cx="120" cy="592" r="1" fill="white"/>
<circle cx="70" cy="602" r="1" fill="white"/>
<circle cx="130" cy="602" r="1" fill="white"/>
<circle cx="70" cy="522" r="1" fill="white"/>
<circle cx="130" cy="522" r="1" fill="white"/>
<circle cx="70" cy="642" r="1" fill="white"/>
<circle cx="130" cy="642" r="1" fill="white"/>
<circle cx="70" cy="562" r="1" fill="white"/>
<circle cx="130" cy="562" r="1" fill="white"/>
<circle cx="70" cy="622" r="1" fill="white"/>
<circle cx="130" cy="622" r="1" fill="white"/>
<circle cx="70" cy="542" r="1" fill="white"/>
<circle cx="130" cy="542" r="1" fill="white"/>
<circle cx="70" cy="662" r="1" fill="white"/>
<circle cx="130" cy="662" r="1" fill="white"/>
<circle cx="70" cy="582" r="1" fill="white"/>
<circle cx="130" cy="582" r="1" fill="white"/>
<circle cx="70" cy="612" r="1" fill="white"/>
<circle cx="130" cy="612" r="1" fill="white"/>
<circle cx="70" cy="532" r="1" fill="white"/>
<circle cx="130" cy="532" r="1" fill="white"/>
<circle cx="70" cy="652" r="1" fill="white"/>
<circle cx="130" cy="652" r="1" fill="white"/>
<circle cx="70" cy="572" r="1" fill="white"/>
<circle cx="130" cy="572" r="1" fill="white"/>
<circle cx="70" cy="632" r="1" fill="white"/>
<circle cx="130" cy="632" r="1" fill="white"/>
<circle cx="70" cy="552" r="1" fill="white"/>
<circle cx="130" cy="552" r="1" fill="white"/>
<circle cx="70" cy="672" r="1" fill="white"/>
<circle cx="130" cy="672" r="1" fill="white"/>
<circle cx="70" cy="592" r="1" fill="white"/>
<circle cx="130" cy="592" r="1" fill="white"/>
<circle cx="80" cy="602" r="1" fill="white"/>
<circle cx="140" cy="602" r="1" fill="white"/>
<circle cx="80" cy="522" r="1" fill="white"/>
<circle cx="140" cy="522" r="1" fill="white"/>
<circle cx="80" cy="642" r="1" fill="white"/>
<circle cx="140" cy="642" r="1" fill="white"/>
<circle cx="80" cy="562" r="1" fill="white"/>
<circle cx="140" cy="562" r="1" fill="white"/>
<circle cx="80" cy="622" r="1" fill="white"/>
<circle cx="140" cy="622" r="1" fill="white"/>
<circle cx="80" cy="542" r="1" fill="white"/>
<circle cx="140" cy="542" r="1" fill="white"/>
<circle cx="80" cy="662" r="1" fill="white"/>
<circle cx="140" cy="662" r="1" fill="white"/>
<circle cx="80" cy="582" r="1" fill="white"/>
<circle cx="140" cy="582" r="1" fill="white"/>
<circle cx="80" cy="612" r="1" fill="white"/>
<circle cx="140" cy="612" r="1" fill="white"/>
<circle cx="80" cy="532" r="1" fill="white"/>
<circle cx="140" cy="532" r="1" fill="white"/>
<circle cx="80" cy="652" r="1" fill="white"/>
<circle cx="140" cy="652" r="1" fill="white"/>
<circle cx="80" cy="572" r="1" fill="white"/>
<circle cx="140" cy="572" r="1" fill="white"/>
<circle cx="80" cy="632" r="1" fill="white"/>
<circle cx="140" cy="632" r="1" fill="white"/>
<circle cx="80" cy="552" r="1" fill="white"/>
<circle cx="140" cy="552" r="1" fill="white"/>
<circle cx="80" cy="672" r="1" fill="white"/>
<circle cx="140" cy="672" r="1" fill="white"/>
<circle cx="80" cy="592" r="1" fill="white"/>
<circle cx="140" cy="592" r="1" fill="white"/>
<circle cx="90" cy="602" r="1" fill="white"/>
<circle cx="150" cy="602" r="1" fill="white"/>
<circle cx="90" cy="522" r="1" fill="white"/>
<circle cx="150" cy="522" r="1" fill="white"/>
<circle cx="90" cy="642" r="1" fill="white"/>
<circle cx="150" cy="642" r="1" fill="white"/>
<circle cx="90" cy="562" r="1" fill="white"/>
<circle cx="150" cy="562" r="1" fill="white"/>
<circle cx="90" cy="622" r="1" fill="white"/>
<circle cx="150" cy="622" r="1" fill="white"/>
<circle cx="90" cy="542" r="1" fill="white"/>
<circle cx="150" cy="542" r="1" fill="white"/>
<circle cx="90" cy="662" r="1" fill="white"/>
<circle cx="150" cy="662" r="1" fill="white"/>
<circle cx="90" cy="582" r="1" fill="white"/>
<circle cx="150" cy="582" r="1" fill="white"/>
<circle cx="90" cy="612" r="1" fill="white"/>
<circle cx="150" cy="612" r="1" fill="white"/>
<circle cx="90" cy="532" r="1" fill="white"/>
<circle cx="150" cy="532" r="1" fill="white"/>
<circle cx="90" cy="652" r="1" fill="white"/>
<circle cx="150" cy="652" r="1" fill="white"/>
<circle cx="90" cy="572" r="1" fill="white"/>
<circle cx="150" cy="572" r="1" fill="white"/>
<circle cx="90" cy="632" r="1" fill="white"/>
<circle cx="150" cy="632" r="1" fill="white"/>
<circle cx="90" cy="552" r="1" fill="white"/>
<circle cx="150" cy="552" r="1" fill="white"/>
<circle cx="90" cy="672" r="1" fill="white"/>
<circle cx="150" cy="672" r="1" fill="white"/>
<circle cx="90" cy="592" r="1" fill="white"/>
<circle cx="150" cy="592" r="1" fill="white"/>
</svg>
